HIERARCHY
ROOT pelvis
{
  OFFSET 0 100 0
  CHANNELS 6 Xposition Yposition Zposition Zrotation Xrotation Yrotation
  JOINT pelvis_right_femur
  {
    OFFSET -10.78128 -3.44521 -0.5502486
    CHANNELS 3 Zrotation Xrotation Yrotation
    JOINT right_femur_tibia
    {
      OFFSET -0.8047443 -44.0398 -0.1307829
      CHANNELS 3 Zrotation Xrotation Yrotation
      JOINT right_tibia_foot
      {
        OFFSET 3.006224 -47.83518 -5
        CHANNELS 3 Zrotation Xrotation Yrotation
        End Site
        {
          OFFSET 0 -5 15
        }
      }
    }
  }
  JOINT pelvis_left_femur
  {
    OFFSET 10.78128 -3.44521 -0.5502486
    CHANNELS 3 Zrotation Xrotation Yrotation
    JOINT left_femur_tibia
    {
      OFFSET 0.8047443 -44.0398 -0.1307829
      CHANNELS 3 Zrotation Xrotation Yrotation
      JOINT left_tibia_foot
      {
        OFFSET -4.370144 -48.10324 -4.275266
        CHANNELS 3 Zrotation Xrotation Yrotation
        End Site
        {
          OFFSET 0 -5 15
        }
      }
    }
  }
  JOINT pelvis_spine1
  {
    OFFSET 0 6.468898 -3.129235
    CHANNELS 3 Zrotation Xrotation Yrotation
    JOINT spine1
    {
      OFFSET 0 23.15396 4.99043
      CHANNELS 3 Zrotation Xrotation Yrotation
      JOINT spine2
      {
        OFFSET 0 20.79997 -5.064912
        CHANNELS 3 Zrotation Xrotation Yrotation
        JOINT neck
        {
          OFFSET 0 14.38658 9.616178
          CHANNELS 3 Zrotation Xrotation Yrotation
          End Site
          {
            OFFSET 0 20 0
          }
        }
      }
      JOINT right_manubrium
      {
        OFFSET -5.722621 16.35077 3.967754
        CHANNELS 3 Zrotation Xrotation Yrotation
        JOINT right_clavicle
        {
          OFFSET -13.16364 1.694482 -4.693211
          CHANNELS 3 Zrotation Xrotation Yrotation
          JOINT right_humerus
          {
            OFFSET -28.5034 -0.3100689 -2.792744
            CHANNELS 3 Zrotation Xrotation Yrotation
            JOINT right_radius
            {
              OFFSET -25.15693 0.02248979 -1.271978
              CHANNELS 3 Zrotation Xrotation Yrotation
              End Site
              {
                OFFSET -15 0 0
              }
            }
          }
        }
      }
      JOINT left_manubrium
      {
        OFFSET 5.722621 16.35077 3.967754
        CHANNELS 3 Zrotation Xrotation Yrotation
        JOINT left_clavicle
        {
          OFFSET 13.16364 1.694482 -4.693211
          CHANNELS 3 Zrotation Xrotation Yrotation
          JOINT left_humerus
          {
            OFFSET 29.39168 -1.063119 -2.237045
            CHANNELS 3 Zrotation Xrotation Yrotation
            JOINT left_radius
            {
              OFFSET 24.59957 -0.9528479 0.9047498
              CHANNELS 3 Zrotation Xrotation Yrotation
              End Site
              {
                OFFSET 15 -0 -0
              }
            }
          }
        }
      }
    }
  }
}
MOTION
Frames: 13
Frame Time: 0.0416666666667
-980.3468 103.0492 2593.855 -5.960038 -4.356314 -56.14132 6.238256 7.574546 0.1839698 -0 7.945321 -0 -11.4844 -8.161877 -1.756221 1.705555 -18.95055 -3.041015 -0 40.74307 -0 1.41672 -3.57113 15.65947 1.899766 -2.842203 7.87909 -0.1032298 15.98117 -6.411219 2.040067 19.05008 1.146032 -2.049951 -20.8551 5.622622 -6.963655 -30.62764 10.83999 95.95444 19.20742 -12.78325 -0 0 23.73753 -20.8823 14.85723 14.66708 -0.09811931 -22.57911 -7.401971 -88.74105 12.30023 32.14919 0 0 -24.50735 1.806783 10.7513 13.21244
-984.3133 102.4017 2596.935 -5.935213 -3.662758 -56.6741 6.446572 10.44169 0.1375819 -0 8.300021 -0 -11.04352 -11.38909 -1.62368 3.293522 -21.39417 -2.187483 -0 29.6208 -0 1.423284 -3.245106 16.20913 1.91965 -2.67596 8.179831 -0.1501341 15.9704 -6.113074 2.078228 18.80301 0.8051942 -2.441146 -21.05599 5.598133 -7.140995 -31.65013 10.693 95.21565 19.81877 -10.90456 -0 0 25.76592 -20.97638 15.50937 15.50792 -0.6019262 -21.52309 -7.032003 -89.63183 12.21284 34.37699 0 0 -22.5027 0.9884473 10.06575 14.21351
-988.3654 101.4343 2600.261 -5.875 -2.878214 -57.24445 6.429668 12.74441 0.06092334 -0 9.429037 -0 -10.40351 -14.34677 -1.360486 4.279032 -22.50794 -1.937788 -0 19.8168 -0 1.23166 -2.801124 16.57362 1.91902 -2.534609 8.397151 -0.188332 15.94137 -5.856134 2.100326 18.63145 0.5739607 -2.731875 -21.29452 5.60248 -7.287012 -32.45252 10.56419 94.6115 20.27464 -9.381288 -0 0 27.31334 -21.10942 15.97057 16.23369 -0.982973 -20.67043 -6.722714 -90.39998 12.17869 36.13679 0 0 -20.80095 0.3962405 9.485784 14.96753
-992.5981 100.3439 2603.916 -5.81845 -2.368001 -57.89946 5.899595 14.83455 0.04178809 -0 11.31119 -0 -9.632342 -16.11409 -0.933947 4.310742 -22.58708 -2.527961 -0 12.88913 -0 0.8068553 -2.523286 16.98935 1.904099 -2.433706 8.527363 -0.2188877 15.90626 -5.654756 2.104015 18.53863 0.4669521 -2.903608 -21.56049 5.634233 -7.396032 -33.00634 10.46427 94.18741 20.53584 -8.312718 -0 0 28.31053 -21.27409 16.2103 16.80366 -1.216752 -20.07604 -6.50116 -91.01137 12.20601 37.36221 0 0 -19.49295 0.05222314 9.050291 15.44669
-997.094 99.32761 2607.933 -5.805638 -2.387605 -58.62252 4.737925 16.94031 0.1656417 -0 14.14014 -0 -8.969318 -15.84242 -0.4135045 3.312386 -21.92977 -3.967709 -0 9.458882 -0 0.2111007 -2.650373 17.65221 1.88142 -2.377961 8.576369 -0.2419816 15.87146 -5.520177 2.09142 18.51816 0.4756974 -2.958469 -21.82543 5.68653 -7.470062 -33.30373 10.39748 93.97069 20.61165 -7.742751 -0 0 28.75029 -21.44111 16.23008 17.18057 -1.304214 -19.76037 -6.379566 -91.42578 12.28774 38.02869 0 0 -18.65913 -0.05979056 8.775827 15.66168
-1001.895 98.57948 2612.272 -5.838946 -2.974028 -59.31425 3.049421 18.93048 0.4399285 -0 18.29763 -0 -8.729076 -13.06345 0.1082332 1.484416 -20.69 -6.03941 -0 9.183449 -0 -0.3900423 -3.273841 18.56455 1.856717 -2.362123 8.556705 -0.2564489 15.83746 -5.461071 2.068298 18.55629 0.5726129 -2.916231 -22.04781 5.748001 -7.517682 -33.35282 10.36176 93.97032 20.55153 -7.664929 -0 0 28.67534 -21.56563 16.05907 17.33266 -1.268076 -19.71428 -6.355772 -91.59785 12.403 38.14255 0 0 -18.37005 0.01568437 8.657985 15.65161
-1006.973 98.28183 2616.818 -5.880149 -3.940602 -59.8136 1.154491 20.25925 0.7607943 -0 24.15897 -0 -9.150446 -7.88347 0.6154666 -0.7691984 -18.85076 -8.355095 -0 11.0464 -0 -0.7685947 -4.31126 19.54267 1.834571 -2.374006 8.48475 -0.2603909 15.80016 -5.483902 2.041842 18.63488 0.720559 -2.807327 -22.18442 5.805393 -7.554295 -33.17327 10.34961 94.18607 20.42903 -8.040296 -0 0 28.15688 -21.59591 15.73806 17.23554 -1.145274 -19.91004 -6.418061 -91.48071 12.52023 37.72944 0 0 -18.69055 0.2190837 8.673157 15.4731
-1012.214 98.56584 2621.401 -5.893205 -4.957756 -59.96123 -0.4842311 20.13439 0.9479665 -0 31.75196 -0 -10.2821 -1.090536 1.171138 -2.947662 -16.3149 -10.4561 -0 13.75128 -0 -0.7340345 -5.561583 20.3446 1.818139 -2.397656 8.378359 -0.2525547 15.75189 -5.59208 2.018201 18.73484 0.8840647 -2.66434 -22.20225 5.847193 -7.602188 -32.79214 10.34924 94.6194 20.32508 -8.816544 -0 0 27.27267 -21.48221 15.29935 16.87428 -0.9785612 -20.31207 -6.551036 -91.03271 12.60103 36.82619 0 0 -19.67987 0.4877684 8.780511 15.1912
-1017.426 99.44775 2625.83 -5.905052 -5.687258 -59.68078 -1.441197 17.86506 0.8616155 -0 40.34034 -0 -11.91775 5.871934 1.788555 -4.600547 -13.03453 -11.96529 -0 16.0786 -0 -0.2550056 -6.825171 20.80365 1.808393 -2.415496 8.254781 -0.2339219 15.68134 -5.783286 2.000542 18.84005 1.038955 -2.514148 -22.0871 5.86737 -7.688251 -32.24052 10.3463 95.27807 20.31463 -9.938229 -0 0 26.0919 -21.1858 14.75105 16.24741 -0.8094515 -20.88261 -6.739648 -90.22805 12.60495 35.47935 0 0 -21.37892 0.764589 8.925262 14.87251
-1022.396 100.7778 2629.956 -6.011355 -5.944445 -59.0307 -1.571029 13.28935 0.5178102 -0 48.19296 -0 -13.58098 11.28653 2.291427 -5.499064 -9.11134 -12.75011 -0 17.19452 -0 0.4688452 -8.043975 20.88531 1.802928 -2.410208 8.128151 -0.2086815 15.57371 -6.045743 1.987977 18.94148 1.178971 -2.371603 -21.84791 5.868289 -7.837349 -31.55069 10.3269 96.17031 20.45429 -11.3466 -0 0 24.66851 -20.6904 14.07218 15.37455 -0.6719302 -21.58236 -6.97082 -89.07231 12.49708 33.75015 0 0 -23.78125 1.005643 9.046308 14.5768
-1026.967 102.2518 2633.713 -6.269217 -5.796243 -58.18098 -1.096167 7.010991 0.02125839 -0 52.99762 -0 -14.68982 13.94145 2.390992 -5.725337 -4.824764 -12.95973 -0 16.85461 -0 1.077577 -9.359421 20.6364 1.795283 -2.368501 8.005879 -0.1834419 15.41372 -6.356262 1.975515 19.04072 1.318293 -2.23545 -21.51787 5.861558 -8.061213 -30.75308 10.28249 97.2897 20.76537 -12.97618 -0 0 23.03974 -20.01592 13.2237 14.30532 -0.5848555 -22.37103 -7.233782 -87.61917 12.26055 31.71937 0 0 -26.79582 1.191665 9.091656 14.3422
-1031.108 103.506 2637.127 -6.56919 -5.474286 -57.32338 -0.4286639 0.133527 -0.6300265 -0 53.00996 -0 -14.91347 13.76387 2.00403 -5.581545 -0.5587982 -12.85894 -0 15.37562 -0 1.279892 -10.99029 20.07833 1.776226 -2.287709 7.884795 -0.1639488 15.19362 -6.683748 1.955458 19.15071 1.487285 -2.088774 -21.15142 5.865294 -8.346675 -29.87365 10.21539 98.59691 21.21266 -14.75588 -0 0 21.22838 -19.22819 12.17718 13.1224 -0.5433178 -23.21251 -7.519986 -85.97874 11.91193 29.48428 0 0 -30.22336 1.341743 9.040832 14.16574
-1034.923 104.2486 2640.283 -6.668326 -5.167551 -56.58388 0.08759361 -6.357532 -1.552396 -0 48.10101 -0 -14.32445 11.68999 1.370243 -5.388233 3.339193 -12.6178 -0 13.37444 -0 1.073139 -13.00594 19.18876 1.737637 -2.182199 7.750309 -0.1506922 14.92324 -6.998462 1.920682 19.29098 1.718978 -1.906671 -20.81373 5.897342 -8.650638 -28.93411 10.14157 100.0068 21.69283 -16.61299 -0 0 19.2534 -18.43331 10.95312 11.93059 -0.5145898 -24.08197 -7.821904 -84.30667 11.50955 27.14671 0 0 -33.76887 1.517219 8.924598 13.99267
